<svg xmlns="http://www.w3.org/2000/svg" xmlns:xlink="http://www.w3.org/1999/xlink" width="750" zoomAndPan="magnify" viewBox="0 0 562.5 562.499982" height="750" preserveAspectRatio="xMidYMid meet" version="1.0"><defs><g/><clipPath id="31fb1efd84"><path d="M 29.613281 33.867188 L 533 33.867188 L 533 532 L 29.613281 532 Z M 29.613281 33.867188 " clip-rule="nonzero"/></clipPath><clipPath id="6c003fa2bf"><path d="M 55.863281 33.867188 L 506.636719 33.867188 C 521.132812 33.867188 532.886719 45.617188 532.886719 60.117188 L 532.886719 505.542969 C 532.886719 520.042969 521.132812 531.792969 506.636719 531.792969 L 55.863281 531.792969 C 41.367188 531.792969 29.613281 520.042969 29.613281 505.542969 L 29.613281 60.117188 C 29.613281 45.617188 41.367188 33.867188 55.863281 33.867188 " clip-rule="nonzero"/></clipPath><clipPath id="1b7de0bf95"><path d="M 56.25 198.453125 L 507 198.453125 L 507 367.203125 L 56.25 367.203125 Z M 56.25 198.453125 " clip-rule="nonzero"/></clipPath><clipPath id="0d18473445"><path d="M 82.5 198.453125 L 480 198.453125 C 494.496094 198.453125 506.25 210.207031 506.25 224.703125 L 506.25 340.953125 C 506.25 355.453125 494.496094 367.203125 480 367.203125 L 82.5 367.203125 C 68.003906 367.203125 56.25 355.453125 56.25 340.953125 L 56.25 224.703125 C 56.25 210.207031 68.003906 198.453125 82.5 198.453125 " clip-rule="nonzero"/></clipPath></defs><g clip-path="url(#31fb1efd84)"><g clip-path="url(#6c003fa2bf)"><path fill="#151f28" d="M 29.613281 33.867188 L 533.226562 33.867188 L 533.226562 532.207031 L 29.613281 532.207031 Z M 29.613281 33.867188 " fill-opacity="1" fill-rule="nonzero"/></g></g><g clip-path="url(#1b7de0bf95)"><g clip-path="url(#0d18473445)"><path fill="#fcf258" d="M 56.25 198.453125 L 507.128906 198.453125 L 507.128906 367.203125 L 56.25 367.203125 Z M 56.25 198.453125 " fill-opacity="1" fill-rule="nonzero"/></g></g><g fill="#ff0000" fill-opacity="1"><g transform="translate(70.683707, 326.33002)"><g><path d="M 8 -9.015625 C 8 -11.929688 8.984375 -14.300781 10.953125 -16.125 C 12.921875 -17.945312 15.382812 -18.859375 18.34375 -18.859375 C 21.351562 -18.859375 23.835938 -17.945312 25.796875 -16.125 C 27.765625 -14.300781 28.75 -11.929688 28.75 -9.015625 C 28.75 -6.140625 27.773438 -3.800781 25.828125 -2 C 23.890625 -0.195312 21.394531 0.703125 18.34375 0.703125 C 15.34375 0.703125 12.867188 -0.195312 10.921875 -2 C 8.972656 -3.800781 8 -6.140625 8 -9.015625 Z M 8 -9.015625 "/></g></g></g><g fill="#ff0000" fill-opacity="1"><g transform="translate(108.451129, 326.33002)"><g><path d="M 56.171875 -24.25 C 56.171875 -27.84375 54.898438 -30.601562 52.359375 -32.53125 C 49.828125 -34.457031 45.257812 -36.488281 38.65625 -38.625 C 32.050781 -40.757812 26.828125 -42.863281 22.984375 -44.9375 C 12.484375 -50.613281 7.234375 -58.253906 7.234375 -67.859375 C 7.234375 -72.847656 8.640625 -77.300781 11.453125 -81.21875 C 14.265625 -85.132812 18.304688 -88.191406 23.578125 -90.390625 C 28.847656 -92.585938 34.765625 -93.6875 41.328125 -93.6875 C 47.921875 -93.6875 53.800781 -92.488281 58.96875 -90.09375 C 64.132812 -87.707031 68.144531 -84.332031 71 -79.96875 C 73.851562 -75.613281 75.28125 -70.664062 75.28125 -65.125 L 56.234375 -65.125 C 56.234375 -69.351562 54.898438 -72.640625 52.234375 -74.984375 C 49.578125 -77.335938 45.832031 -78.515625 41 -78.515625 C 36.351562 -78.515625 32.738281 -77.53125 30.15625 -75.5625 C 27.570312 -73.601562 26.28125 -71.015625 26.28125 -67.796875 C 26.28125 -64.785156 27.789062 -62.265625 30.8125 -60.234375 C 33.84375 -58.203125 38.300781 -56.300781 44.1875 -54.53125 C 55.019531 -51.269531 62.910156 -47.226562 67.859375 -42.40625 C 72.804688 -37.582031 75.28125 -31.570312 75.28125 -24.375 C 75.28125 -16.375 72.253906 -10.097656 66.203125 -5.546875 C 60.148438 -1.003906 52.003906 1.265625 41.765625 1.265625 C 34.660156 1.265625 28.1875 -0.03125 22.34375 -2.625 C 16.5 -5.226562 12.039062 -8.796875 8.96875 -13.328125 C 5.90625 -17.859375 4.375 -23.109375 4.375 -29.078125 L 23.484375 -29.078125 C 23.484375 -18.878906 29.578125 -13.78125 41.765625 -13.78125 C 46.296875 -13.78125 49.828125 -14.695312 52.359375 -16.53125 C 54.898438 -18.375 56.171875 -20.945312 56.171875 -24.25 Z M 56.171875 -24.25 "/></g></g></g><g fill="#ff0000" fill-opacity="1"><g transform="translate(188.36572, 326.33002)"><g><path d="M 35.609375 -13.515625 C 38.992188 -13.515625 41.742188 -14.445312 43.859375 -16.3125 C 45.972656 -18.175781 47.070312 -20.648438 47.15625 -23.734375 L 64.359375 -23.734375 C 64.316406 -19.085938 63.046875 -14.828125 60.546875 -10.953125 C 58.054688 -7.078125 54.640625 -4.070312 50.296875 -1.9375 C 45.960938 0.195312 41.171875 1.265625 35.921875 1.265625 C 26.109375 1.265625 18.363281 -1.851562 12.6875 -8.09375 C 7.019531 -14.332031 4.1875 -22.953125 4.1875 -33.953125 L 4.1875 -35.171875 C 4.1875 -45.742188 7 -54.179688 12.625 -60.484375 C 18.257812 -66.796875 25.984375 -69.953125 35.796875 -69.953125 C 44.390625 -69.953125 51.273438 -67.503906 56.453125 -62.609375 C 61.640625 -57.722656 64.273438 -51.21875 64.359375 -43.09375 L 47.15625 -43.09375 C 47.070312 -46.65625 45.972656 -49.546875 43.859375 -51.765625 C 41.742188 -53.984375 38.953125 -55.09375 35.484375 -55.09375 C 31.210938 -55.09375 27.984375 -53.535156 25.796875 -50.421875 C 23.617188 -47.316406 22.53125 -42.273438 22.53125 -35.296875 L 22.53125 -33.390625 C 22.53125 -26.316406 23.609375 -21.234375 25.765625 -18.140625 C 27.929688 -15.054688 31.210938 -13.515625 35.609375 -13.515625 Z M 35.609375 -13.515625 "/></g></g></g><g fill="#ff0000" fill-opacity="1"><g transform="translate(256.156648, 326.33002)"><g><path d="M 45.640625 -51.484375 C 43.140625 -51.816406 40.9375 -51.984375 39.03125 -51.984375 C 32.09375 -51.984375 27.546875 -49.632812 25.390625 -44.9375 L 25.390625 0 L 7.046875 0 L 7.046875 -68.6875 L 24.375 -68.6875 L 24.890625 -60.5 C 28.566406 -66.800781 33.664062 -69.953125 40.1875 -69.953125 C 42.21875 -69.953125 44.117188 -69.675781 45.890625 -69.125 Z M 45.640625 -51.484375 "/></g></g></g><g fill="#ff0000" fill-opacity="1"><g transform="translate(303.572217, 326.33002)"><g><path d="M 26.40625 0 L 8 0 L 8 -68.6875 L 26.40625 -68.6875 Z M 6.921875 -86.453125 C 6.921875 -89.203125 7.835938 -91.460938 9.671875 -93.234375 C 11.515625 -95.015625 14.023438 -95.90625 17.203125 -95.90625 C 20.335938 -95.90625 22.832031 -95.015625 24.6875 -93.234375 C 26.550781 -91.460938 27.484375 -89.203125 27.484375 -86.453125 C 27.484375 -83.660156 26.539062 -81.375 24.65625 -79.59375 C 22.78125 -77.820312 20.296875 -76.9375 17.203125 -76.9375 C 14.109375 -76.9375 11.617188 -77.820312 9.734375 -79.59375 C 7.859375 -81.375 6.921875 -83.660156 6.921875 -86.453125 Z M 6.921875 -86.453125 "/></g></g></g><g fill="#ff0000" fill-opacity="1"><g transform="translate(338.038959, 326.33002)"><g><path d="M 68.9375 -33.703125 C 68.9375 -22.703125 66.585938 -14.125 61.890625 -7.96875 C 57.191406 -1.8125 50.632812 1.265625 42.21875 1.265625 C 34.769531 1.265625 28.820312 -1.585938 24.375 -7.296875 L 23.546875 0 L 7.046875 0 L 7.046875 -97.5 L 25.390625 -97.5 L 25.390625 -62.53125 C 29.617188 -67.476562 35.179688 -69.953125 42.078125 -69.953125 C 50.460938 -69.953125 57.035156 -66.875 61.796875 -60.71875 C 66.554688 -54.5625 68.9375 -45.894531 68.9375 -34.71875 Z M 50.59375 -35.046875 C 50.59375 -41.984375 49.488281 -47.046875 47.28125 -50.234375 C 45.082031 -53.429688 41.804688 -55.03125 37.453125 -55.03125 C 31.609375 -55.03125 27.585938 -52.640625 25.390625 -47.859375 L 25.390625 -20.75 C 27.628906 -15.925781 31.691406 -13.515625 37.578125 -13.515625 C 43.503906 -13.515625 47.398438 -16.4375 49.265625 -22.28125 C 50.148438 -25.070312 50.59375 -29.328125 50.59375 -35.046875 Z M 50.59375 -35.046875 "/></g></g></g><g fill="#ff0000" fill-opacity="1"><g transform="translate(411.225248, 326.33002)"><g><path d="M 38.65625 1.265625 C 28.582031 1.265625 20.382812 -1.820312 14.0625 -8 C 7.738281 -14.175781 4.578125 -22.40625 4.578125 -32.6875 L 4.578125 -34.46875 C 4.578125 -41.363281 5.90625 -47.53125 8.5625 -52.96875 C 11.226562 -58.40625 15.003906 -62.59375 19.890625 -65.53125 C 24.785156 -68.476562 30.363281 -69.953125 36.625 -69.953125 C 46.019531 -69.953125 53.414062 -66.988281 58.8125 -61.0625 C 64.207031 -55.132812 66.90625 -46.734375 66.90625 -35.859375 L 66.90625 -28.375 L 23.171875 -28.375 C 23.765625 -23.882812 25.550781 -20.285156 28.53125 -17.578125 C 31.519531 -14.867188 35.296875 -13.515625 39.859375 -13.515625 C 46.929688 -13.515625 52.457031 -16.078125 56.4375 -21.203125 L 65.4375 -11.109375 C 62.6875 -7.210938 58.960938 -4.175781 54.265625 -2 C 49.578125 0.175781 44.375 1.265625 38.65625 1.265625 Z M 36.5625 -55.09375 C 32.925781 -55.09375 29.972656 -53.863281 27.703125 -51.40625 C 25.441406 -48.957031 23.992188 -45.445312 23.359375 -40.875 L 48.875 -40.875 L 48.875 -42.34375 C 48.789062 -46.40625 47.691406 -49.546875 45.578125 -51.765625 C 43.460938 -53.984375 40.457031 -55.09375 36.5625 -55.09375 Z M 36.5625 -55.09375 "/></g></g></g><g fill="#00ffff" fill-opacity="1"><g transform="translate(62.883726, 326.33002)"><g><path d="M 8 -9.015625 C 8 -11.929688 8.984375 -14.300781 10.953125 -16.125 C 12.921875 -17.945312 15.382812 -18.859375 18.34375 -18.859375 C 21.351562 -18.859375 23.835938 -17.945312 25.796875 -16.125 C 27.765625 -14.300781 28.75 -11.929688 28.75 -9.015625 C 28.75 -6.140625 27.773438 -3.800781 25.828125 -2 C 23.890625 -0.195312 21.394531 0.703125 18.34375 0.703125 C 15.34375 0.703125 12.867188 -0.195312 10.921875 -2 C 8.972656 -3.800781 8 -6.140625 8 -9.015625 Z M 8 -9.015625 "/></g></g></g><g fill="#00ffff" fill-opacity="1"><g transform="translate(100.651149, 326.33002)"><g><path d="M 56.171875 -24.25 C 56.171875 -27.84375 54.898438 -30.601562 52.359375 -32.53125 C 49.828125 -34.457031 45.257812 -36.488281 38.65625 -38.625 C 32.050781 -40.757812 26.828125 -42.863281 22.984375 -44.9375 C 12.484375 -50.613281 7.234375 -58.253906 7.234375 -67.859375 C 7.234375 -72.847656 8.640625 -77.300781 11.453125 -81.21875 C 14.265625 -85.132812 18.304688 -88.191406 23.578125 -90.390625 C 28.847656 -92.585938 34.765625 -93.6875 41.328125 -93.6875 C 47.921875 -93.6875 53.800781 -92.488281 58.96875 -90.09375 C 64.132812 -87.707031 68.144531 -84.332031 71 -79.96875 C 73.851562 -75.613281 75.28125 -70.664062 75.28125 -65.125 L 56.234375 -65.125 C 56.234375 -69.351562 54.898438 -72.640625 52.234375 -74.984375 C 49.578125 -77.335938 45.832031 -78.515625 41 -78.515625 C 36.351562 -78.515625 32.738281 -77.53125 30.15625 -75.5625 C 27.570312 -73.601562 26.28125 -71.015625 26.28125 -67.796875 C 26.28125 -64.785156 27.789062 -62.265625 30.8125 -60.234375 C 33.84375 -58.203125 38.300781 -56.300781 44.1875 -54.53125 C 55.019531 -51.269531 62.910156 -47.226562 67.859375 -42.40625 C 72.804688 -37.582031 75.28125 -31.570312 75.28125 -24.375 C 75.28125 -16.375 72.253906 -10.097656 66.203125 -5.546875 C 60.148438 -1.003906 52.003906 1.265625 41.765625 1.265625 C 34.660156 1.265625 28.1875 -0.03125 22.34375 -2.625 C 16.5 -5.226562 12.039062 -8.796875 8.96875 -13.328125 C 5.90625 -17.859375 4.375 -23.109375 4.375 -29.078125 L 23.484375 -29.078125 C 23.484375 -18.878906 29.578125 -13.78125 41.765625 -13.78125 C 46.296875 -13.78125 49.828125 -14.695312 52.359375 -16.53125 C 54.898438 -18.375 56.171875 -20.945312 56.171875 -24.25 Z M 56.171875 -24.25 "/></g></g></g><g fill="#00ffff" fill-opacity="1"><g transform="translate(180.56574, 326.33002)"><g><path d="M 35.609375 -13.515625 C 38.992188 -13.515625 41.742188 -14.445312 43.859375 -16.3125 C 45.972656 -18.175781 47.070312 -20.648438 47.15625 -23.734375 L 64.359375 -23.734375 C 64.316406 -19.085938 63.046875 -14.828125 60.546875 -10.953125 C 58.054688 -7.078125 54.640625 -4.070312 50.296875 -1.9375 C 45.960938 0.195312 41.171875 1.265625 35.921875 1.265625 C 26.109375 1.265625 18.363281 -1.851562 12.6875 -8.09375 C 7.019531 -14.332031 4.1875 -22.953125 4.1875 -33.953125 L 4.1875 -35.171875 C 4.1875 -45.742188 7 -54.179688 12.625 -60.484375 C 18.257812 -66.796875 25.984375 -69.953125 35.796875 -69.953125 C 44.390625 -69.953125 51.273438 -67.503906 56.453125 -62.609375 C 61.640625 -57.722656 64.273438 -51.21875 64.359375 -43.09375 L 47.15625 -43.09375 C 47.070312 -46.65625 45.972656 -49.546875 43.859375 -51.765625 C 41.742188 -53.984375 38.953125 -55.09375 35.484375 -55.09375 C 31.210938 -55.09375 27.984375 -53.535156 25.796875 -50.421875 C 23.617188 -47.316406 22.53125 -42.273438 22.53125 -35.296875 L 22.53125 -33.390625 C 22.53125 -26.316406 23.609375 -21.234375 25.765625 -18.140625 C 27.929688 -15.054688 31.210938 -13.515625 35.609375 -13.515625 Z M 35.609375 -13.515625 "/></g></g></g><g fill="#00ffff" fill-opacity="1"><g transform="translate(248.356667, 326.33002)"><g><path d="M 45.640625 -51.484375 C 43.140625 -51.816406 40.9375 -51.984375 39.03125 -51.984375 C 32.09375 -51.984375 27.546875 -49.632812 25.390625 -44.9375 L 25.390625 0 L 7.046875 0 L 7.046875 -68.6875 L 24.375 -68.6875 L 24.890625 -60.5 C 28.566406 -66.800781 33.664062 -69.953125 40.1875 -69.953125 C 42.21875 -69.953125 44.117188 -69.675781 45.890625 -69.125 Z M 45.640625 -51.484375 "/></g></g></g><g fill="#00ffff" fill-opacity="1"><g transform="translate(295.772237, 326.33002)"><g><path d="M 26.40625 0 L 8 0 L 8 -68.6875 L 26.40625 -68.6875 Z M 6.921875 -86.453125 C 6.921875 -89.203125 7.835938 -91.460938 9.671875 -93.234375 C 11.515625 -95.015625 14.023438 -95.90625 17.203125 -95.90625 C 20.335938 -95.90625 22.832031 -95.015625 24.6875 -93.234375 C 26.550781 -91.460938 27.484375 -89.203125 27.484375 -86.453125 C 27.484375 -83.660156 26.539062 -81.375 24.65625 -79.59375 C 22.78125 -77.820312 20.296875 -76.9375 17.203125 -76.9375 C 14.109375 -76.9375 11.617188 -77.820312 9.734375 -79.59375 C 7.859375 -81.375 6.921875 -83.660156 6.921875 -86.453125 Z M 6.921875 -86.453125 "/></g></g></g><g fill="#00ffff" fill-opacity="1"><g transform="translate(330.238978, 326.33002)"><g><path d="M 68.9375 -33.703125 C 68.9375 -22.703125 66.585938 -14.125 61.890625 -7.96875 C 57.191406 -1.8125 50.632812 1.265625 42.21875 1.265625 C 34.769531 1.265625 28.820312 -1.585938 24.375 -7.296875 L 23.546875 0 L 7.046875 0 L 7.046875 -97.5 L 25.390625 -97.5 L 25.390625 -62.53125 C 29.617188 -67.476562 35.179688 -69.953125 42.078125 -69.953125 C 50.460938 -69.953125 57.035156 -66.875 61.796875 -60.71875 C 66.554688 -54.5625 68.9375 -45.894531 68.9375 -34.71875 Z M 50.59375 -35.046875 C 50.59375 -41.984375 49.488281 -47.046875 47.28125 -50.234375 C 45.082031 -53.429688 41.804688 -55.03125 37.453125 -55.03125 C 31.609375 -55.03125 27.585938 -52.640625 25.390625 -47.859375 L 25.390625 -20.75 C 27.628906 -15.925781 31.691406 -13.515625 37.578125 -13.515625 C 43.503906 -13.515625 47.398438 -16.4375 49.265625 -22.28125 C 50.148438 -25.070312 50.59375 -29.328125 50.59375 -35.046875 Z M 50.59375 -35.046875 "/></g></g></g><g fill="#00ffff" fill-opacity="1"><g transform="translate(403.425268, 326.33002)"><g><path d="M 38.65625 1.265625 C 28.582031 1.265625 20.382812 -1.820312 14.0625 -8 C 7.738281 -14.175781 4.578125 -22.40625 4.578125 -32.6875 L 4.578125 -34.46875 C 4.578125 -41.363281 5.90625 -47.53125 8.5625 -52.96875 C 11.226562 -58.40625 15.003906 -62.59375 19.890625 -65.53125 C 24.785156 -68.476562 30.363281 -69.953125 36.625 -69.953125 C 46.019531 -69.953125 53.414062 -66.988281 58.8125 -61.0625 C 64.207031 -55.132812 66.90625 -46.734375 66.90625 -35.859375 L 66.90625 -28.375 L 23.171875 -28.375 C 23.765625 -23.882812 25.550781 -20.285156 28.53125 -17.578125 C 31.519531 -14.867188 35.296875 -13.515625 39.859375 -13.515625 C 46.929688 -13.515625 52.457031 -16.078125 56.4375 -21.203125 L 65.4375 -11.109375 C 62.6875 -7.210938 58.960938 -4.175781 54.265625 -2 C 49.578125 0.175781 44.375 1.265625 38.65625 1.265625 Z M 36.5625 -55.09375 C 32.925781 -55.09375 29.972656 -53.863281 27.703125 -51.40625 C 25.441406 -48.957031 23.992188 -45.445312 23.359375 -40.875 L 48.875 -40.875 L 48.875 -42.34375 C 48.789062 -46.40625 47.691406 -49.546875 45.578125 -51.765625 C 43.460938 -53.984375 40.457031 -55.09375 36.5625 -55.09375 Z M 36.5625 -55.09375 "/></g></g></g><g fill="#000000" fill-opacity="1"><g transform="translate(66.783718, 326.33002)"><g><path d="M 8 -9.015625 C 8 -11.929688 8.984375 -14.300781 10.953125 -16.125 C 12.921875 -17.945312 15.382812 -18.859375 18.34375 -18.859375 C 21.351562 -18.859375 23.835938 -17.945312 25.796875 -16.125 C 27.765625 -14.300781 28.75 -11.929688 28.75 -9.015625 C 28.75 -6.140625 27.773438 -3.800781 25.828125 -2 C 23.890625 -0.195312 21.394531 0.703125 18.34375 0.703125 C 15.34375 0.703125 12.867188 -0.195312 10.921875 -2 C 8.972656 -3.800781 8 -6.140625 8 -9.015625 Z M 8 -9.015625 "/></g></g></g><g fill="#000000" fill-opacity="1"><g transform="translate(104.55114, 326.33002)"><g><path d="M 56.171875 -24.25 C 56.171875 -27.84375 54.898438 -30.601562 52.359375 -32.53125 C 49.828125 -34.457031 45.257812 -36.488281 38.65625 -38.625 C 32.050781 -40.757812 26.828125 -42.863281 22.984375 -44.9375 C 12.484375 -50.613281 7.234375 -58.253906 7.234375 -67.859375 C 7.234375 -72.847656 8.640625 -77.300781 11.453125 -81.21875 C 14.265625 -85.132812 18.304688 -88.191406 23.578125 -90.390625 C 28.847656 -92.585938 34.765625 -93.6875 41.328125 -93.6875 C 47.921875 -93.6875 53.800781 -92.488281 58.96875 -90.09375 C 64.132812 -87.707031 68.144531 -84.332031 71 -79.96875 C 73.851562 -75.613281 75.28125 -70.664062 75.28125 -65.125 L 56.234375 -65.125 C 56.234375 -69.351562 54.898438 -72.640625 52.234375 -74.984375 C 49.578125 -77.335938 45.832031 -78.515625 41 -78.515625 C 36.351562 -78.515625 32.738281 -77.53125 30.15625 -75.5625 C 27.570312 -73.601562 26.28125 -71.015625 26.28125 -67.796875 C 26.28125 -64.785156 27.789062 -62.265625 30.8125 -60.234375 C 33.84375 -58.203125 38.300781 -56.300781 44.1875 -54.53125 C 55.019531 -51.269531 62.910156 -47.226562 67.859375 -42.40625 C 72.804688 -37.582031 75.28125 -31.570312 75.28125 -24.375 C 75.28125 -16.375 72.253906 -10.097656 66.203125 -5.546875 C 60.148438 -1.003906 52.003906 1.265625 41.765625 1.265625 C 34.660156 1.265625 28.1875 -0.03125 22.34375 -2.625 C 16.5 -5.226562 12.039062 -8.796875 8.96875 -13.328125 C 5.90625 -17.859375 4.375 -23.109375 4.375 -29.078125 L 23.484375 -29.078125 C 23.484375 -18.878906 29.578125 -13.78125 41.765625 -13.78125 C 46.296875 -13.78125 49.828125 -14.695312 52.359375 -16.53125 C 54.898438 -18.375 56.171875 -20.945312 56.171875 -24.25 Z M 56.171875 -24.25 "/></g></g></g><g fill="#000000" fill-opacity="1"><g transform="translate(184.465731, 326.33002)"><g><path d="M 35.609375 -13.515625 C 38.992188 -13.515625 41.742188 -14.445312 43.859375 -16.3125 C 45.972656 -18.175781 47.070312 -20.648438 47.15625 -23.734375 L 64.359375 -23.734375 C 64.316406 -19.085938 63.046875 -14.828125 60.546875 -10.953125 C 58.054688 -7.078125 54.640625 -4.070312 50.296875 -1.9375 C 45.960938 0.195312 41.171875 1.265625 35.921875 1.265625 C 26.109375 1.265625 18.363281 -1.851562 12.6875 -8.09375 C 7.019531 -14.332031 4.1875 -22.953125 4.1875 -33.953125 L 4.1875 -35.171875 C 4.1875 -45.742188 7 -54.179688 12.625 -60.484375 C 18.257812 -66.796875 25.984375 -69.953125 35.796875 -69.953125 C 44.390625 -69.953125 51.273438 -67.503906 56.453125 -62.609375 C 61.640625 -57.722656 64.273438 -51.21875 64.359375 -43.09375 L 47.15625 -43.09375 C 47.070312 -46.65625 45.972656 -49.546875 43.859375 -51.765625 C 41.742188 -53.984375 38.953125 -55.09375 35.484375 -55.09375 C 31.210938 -55.09375 27.984375 -53.535156 25.796875 -50.421875 C 23.617188 -47.316406 22.53125 -42.273438 22.53125 -35.296875 L 22.53125 -33.390625 C 22.53125 -26.316406 23.609375 -21.234375 25.765625 -18.140625 C 27.929688 -15.054688 31.210938 -13.515625 35.609375 -13.515625 Z M 35.609375 -13.515625 "/></g></g></g><g fill="#000000" fill-opacity="1"><g transform="translate(252.256658, 326.33002)"><g><path d="M 45.640625 -51.484375 C 43.140625 -51.816406 40.9375 -51.984375 39.03125 -51.984375 C 32.09375 -51.984375 27.546875 -49.632812 25.390625 -44.9375 L 25.390625 0 L 7.046875 0 L 7.046875 -68.6875 L 24.375 -68.6875 L 24.890625 -60.5 C 28.566406 -66.800781 33.664062 -69.953125 40.1875 -69.953125 C 42.21875 -69.953125 44.117188 -69.675781 45.890625 -69.125 Z M 45.640625 -51.484375 "/></g></g></g><g fill="#000000" fill-opacity="1"><g transform="translate(299.672228, 326.33002)"><g><path d="M 26.40625 0 L 8 0 L 8 -68.6875 L 26.40625 -68.6875 Z M 6.921875 -86.453125 C 6.921875 -89.203125 7.835938 -91.460938 9.671875 -93.234375 C 11.515625 -95.015625 14.023438 -95.90625 17.203125 -95.90625 C 20.335938 -95.90625 22.832031 -95.015625 24.6875 -93.234375 C 26.550781 -91.460938 27.484375 -89.203125 27.484375 -86.453125 C 27.484375 -83.660156 26.539062 -81.375 24.65625 -79.59375 C 22.78125 -77.820312 20.296875 -76.9375 17.203125 -76.9375 C 14.109375 -76.9375 11.617188 -77.820312 9.734375 -79.59375 C 7.859375 -81.375 6.921875 -83.660156 6.921875 -86.453125 Z M 6.921875 -86.453125 "/></g></g></g><g fill="#000000" fill-opacity="1"><g transform="translate(334.13897, 326.33002)"><g><path d="M 68.9375 -33.703125 C 68.9375 -22.703125 66.585938 -14.125 61.890625 -7.96875 C 57.191406 -1.8125 50.632812 1.265625 42.21875 1.265625 C 34.769531 1.265625 28.820312 -1.585938 24.375 -7.296875 L 23.546875 0 L 7.046875 0 L 7.046875 -97.5 L 25.390625 -97.5 L 25.390625 -62.53125 C 29.617188 -67.476562 35.179688 -69.953125 42.078125 -69.953125 C 50.460938 -69.953125 57.035156 -66.875 61.796875 -60.71875 C 66.554688 -54.5625 68.9375 -45.894531 68.9375 -34.71875 Z M 50.59375 -35.046875 C 50.59375 -41.984375 49.488281 -47.046875 47.28125 -50.234375 C 45.082031 -53.429688 41.804688 -55.03125 37.453125 -55.03125 C 31.609375 -55.03125 27.585938 -52.640625 25.390625 -47.859375 L 25.390625 -20.75 C 27.628906 -15.925781 31.691406 -13.515625 37.578125 -13.515625 C 43.503906 -13.515625 47.398438 -16.4375 49.265625 -22.28125 C 50.148438 -25.070312 50.59375 -29.328125 50.59375 -35.046875 Z M 50.59375 -35.046875 "/></g></g></g><g fill="#000000" fill-opacity="1"><g transform="translate(407.325259, 326.33002)"><g><path d="M 38.65625 1.265625 C 28.582031 1.265625 20.382812 -1.820312 14.0625 -8 C 7.738281 -14.175781 4.578125 -22.40625 4.578125 -32.6875 L 4.578125 -34.46875 C 4.578125 -41.363281 5.90625 -47.53125 8.5625 -52.96875 C 11.226562 -58.40625 15.003906 -62.59375 19.890625 -65.53125 C 24.785156 -68.476562 30.363281 -69.953125 36.625 -69.953125 C 46.019531 -69.953125 53.414062 -66.988281 58.8125 -61.0625 C 64.207031 -55.132812 66.90625 -46.734375 66.90625 -35.859375 L 66.90625 -28.375 L 23.171875 -28.375 C 23.765625 -23.882812 25.550781 -20.285156 28.53125 -17.578125 C 31.519531 -14.867188 35.296875 -13.515625 39.859375 -13.515625 C 46.929688 -13.515625 52.457031 -16.078125 56.4375 -21.203125 L 65.4375 -11.109375 C 62.6875 -7.210938 58.960938 -4.175781 54.265625 -2 C 49.578125 0.175781 44.375 1.265625 38.65625 1.265625 Z M 36.5625 -55.09375 C 32.925781 -55.09375 29.972656 -53.863281 27.703125 -51.40625 C 25.441406 -48.957031 23.992188 -45.445312 23.359375 -40.875 L 48.875 -40.875 L 48.875 -42.34375 C 48.789062 -46.40625 47.691406 -49.546875 45.578125 -51.765625 C 43.460938 -53.984375 40.457031 -55.09375 36.5625 -55.09375 Z M 36.5625 -55.09375 "/></g></g></g></svg>