<svg xmlns="http://www.w3.org/2000/svg" xmlns:xlink="http://www.w3.org/1999/xlink" width="750" zoomAndPan="magnify" viewBox="0 0 562.5 562.499982" height="750" preserveAspectRatio="xMidYMid meet" version="1.0"><defs><g/><clipPath id="864948fed7"><path d="M 6.320312 9.238281 L 556.550781 9.238281 L 556.550781 553.710938 L 6.320312 553.710938 Z M 6.320312 9.238281 " clip-rule="nonzero"/></clipPath><clipPath id="cb2d761d7d"><path d="M 32.570312 9.238281 L 529.929688 9.238281 C 544.425781 9.238281 556.179688 20.992188 556.179688 35.488281 L 556.179688 527.011719 C 556.179688 541.507812 544.425781 553.261719 529.929688 553.261719 L 32.570312 553.261719 C 18.074219 553.261719 6.320312 541.507812 6.320312 527.011719 L 6.320312 35.488281 C 6.320312 20.992188 18.074219 9.238281 32.570312 9.238281 " clip-rule="nonzero"/></clipPath><clipPath id="ceeb6158a5"><path d="M 35.421875 189.066406 L 528 189.066406 L 528 373.433594 L 35.421875 373.433594 Z M 35.421875 189.066406 " clip-rule="nonzero"/></clipPath><clipPath id="71d27578c5"><path d="M 61.671875 189.066406 L 500.828125 189.066406 C 515.324219 189.066406 527.078125 200.816406 527.078125 215.316406 L 527.078125 347.183594 C 527.078125 361.683594 515.324219 373.433594 500.828125 373.433594 L 61.671875 373.433594 C 47.175781 373.433594 35.421875 361.683594 35.421875 347.183594 L 35.421875 215.316406 C 35.421875 200.816406 47.175781 189.066406 61.671875 189.066406 " clip-rule="nonzero"/></clipPath></defs><g clip-path="url(#864948fed7)"><g clip-path="url(#cb2d761d7d)"><path fill="#151f28" d="M 6.320312 9.238281 L 556.550781 9.238281 L 556.550781 553.710938 L 6.320312 553.710938 Z M 6.320312 9.238281 " fill-opacity="1" fill-rule="nonzero"/></g></g><g clip-path="url(#ceeb6158a5)"><g clip-path="url(#71d27578c5)"><path fill="#fcf258" d="M 35.421875 189.066406 L 528.039062 189.066406 L 528.039062 373.433594 L 35.421875 373.433594 Z M 35.421875 189.066406 " fill-opacity="1" fill-rule="nonzero"/></g></g><g fill="#ff0000" fill-opacity="1"><g transform="translate(51.192259, 328.776654)"><g><path d="M 8.734375 -9.84375 C 8.734375 -13.039062 9.804688 -15.628906 11.953125 -17.609375 C 14.109375 -19.597656 16.804688 -20.59375 20.046875 -20.59375 C 23.328125 -20.59375 26.039062 -19.597656 28.1875 -17.609375 C 30.34375 -15.628906 31.421875 -13.039062 31.421875 -9.84375 C 31.421875 -6.695312 30.351562 -4.140625 28.21875 -2.171875 C 26.09375 -0.210938 23.367188 0.765625 20.046875 0.765625 C 16.765625 0.765625 14.054688 -0.210938 11.921875 -2.171875 C 9.796875 -4.140625 8.734375 -6.695312 8.734375 -9.84375 Z M 8.734375 -9.84375 "/></g></g></g><g fill="#ff0000" fill-opacity="1"><g transform="translate(92.455694, 328.776654)"><g><path d="M 61.375 -26.484375 C 61.375 -30.421875 59.984375 -33.441406 57.203125 -35.546875 C 54.429688 -37.648438 49.441406 -39.867188 42.234375 -42.203125 C 35.023438 -44.535156 29.316406 -46.832031 25.109375 -49.09375 C 13.640625 -55.289062 7.90625 -63.640625 7.90625 -74.140625 C 7.90625 -79.585938 9.441406 -84.453125 12.515625 -88.734375 C 15.585938 -93.015625 20 -96.351562 25.75 -98.75 C 31.507812 -101.15625 37.972656 -102.359375 45.140625 -102.359375 C 52.359375 -102.359375 58.785156 -101.050781 64.421875 -98.4375 C 70.066406 -95.832031 74.445312 -92.144531 77.5625 -87.375 C 80.6875 -82.613281 82.25 -77.207031 82.25 -71.15625 L 61.4375 -71.15625 C 61.4375 -75.78125 59.976562 -79.375 57.0625 -81.9375 C 54.15625 -84.5 50.066406 -85.78125 44.796875 -85.78125 C 39.710938 -85.78125 35.757812 -84.707031 32.9375 -82.5625 C 30.125 -80.414062 28.71875 -77.582031 28.71875 -74.0625 C 28.71875 -70.78125 30.367188 -68.03125 33.671875 -65.8125 C 36.972656 -63.59375 41.835938 -61.515625 48.265625 -59.578125 C 60.097656 -56.015625 68.71875 -51.597656 74.125 -46.328125 C 79.539062 -41.054688 82.25 -34.488281 82.25 -26.625 C 82.25 -17.894531 78.941406 -11.039062 72.328125 -6.0625 C 65.722656 -1.09375 56.828125 1.390625 45.640625 1.390625 C 37.867188 1.390625 30.789062 -0.03125 24.40625 -2.875 C 18.03125 -5.71875 13.164062 -9.613281 9.8125 -14.5625 C 6.457031 -19.507812 4.78125 -25.242188 4.78125 -31.765625 L 25.65625 -31.765625 C 25.65625 -20.617188 32.316406 -15.046875 45.640625 -15.046875 C 50.578125 -15.046875 54.429688 -16.050781 57.203125 -18.0625 C 59.984375 -20.070312 61.375 -22.878906 61.375 -26.484375 Z M 61.375 -26.484375 "/></g></g></g><g fill="#ff0000" fill-opacity="1"><g transform="translate(179.767729, 328.776654)"><g><path d="M 38.90625 -14.765625 C 42.601562 -14.765625 45.609375 -15.78125 47.921875 -17.8125 C 50.234375 -19.851562 51.4375 -22.5625 51.53125 -25.9375 L 70.328125 -25.9375 C 70.273438 -20.851562 68.882812 -16.195312 66.15625 -11.96875 C 63.425781 -7.738281 59.691406 -4.453125 54.953125 -2.109375 C 50.222656 0.222656 44.988281 1.390625 39.25 1.390625 C 28.519531 1.390625 20.054688 -2.019531 13.859375 -8.84375 C 7.671875 -15.664062 4.578125 -25.085938 4.578125 -37.109375 L 4.578125 -38.421875 C 4.578125 -49.984375 7.648438 -59.207031 13.796875 -66.09375 C 19.953125 -72.976562 28.390625 -76.421875 39.109375 -76.421875 C 48.492188 -76.421875 56.019531 -73.75 61.6875 -68.40625 C 67.351562 -63.070312 70.234375 -55.96875 70.328125 -47.09375 L 51.53125 -47.09375 C 51.4375 -50.976562 50.234375 -54.132812 47.921875 -56.5625 C 45.609375 -58.988281 42.554688 -60.203125 38.765625 -60.203125 C 34.097656 -60.203125 30.570312 -58.5 28.1875 -55.09375 C 25.8125 -51.695312 24.625 -46.1875 24.625 -38.5625 L 24.625 -36.484375 C 24.625 -28.753906 25.800781 -23.203125 28.15625 -19.828125 C 30.507812 -16.453125 34.09375 -14.765625 38.90625 -14.765625 Z M 38.90625 -14.765625 "/></g></g></g><g fill="#ff0000" fill-opacity="1"><g transform="translate(253.83385, 328.776654)"><g><path d="M 49.859375 -56.25 C 47.128906 -56.613281 44.726562 -56.796875 42.65625 -56.796875 C 35.070312 -56.796875 30.097656 -54.226562 27.734375 -49.09375 L 27.734375 0 L 7.703125 0 L 7.703125 -75.03125 L 26.625 -75.03125 L 27.1875 -66.09375 C 31.207031 -72.976562 36.78125 -76.421875 43.90625 -76.421875 C 46.125 -76.421875 48.203125 -76.125 50.140625 -75.53125 Z M 49.859375 -56.25 "/></g></g></g><g fill="#ff0000" fill-opacity="1"><g transform="translate(305.638531, 328.776654)"><g><path d="M 28.84375 0 L 8.734375 0 L 8.734375 -75.03125 L 28.84375 -75.03125 Z M 7.5625 -94.453125 C 7.5625 -97.460938 8.566406 -99.9375 10.578125 -101.875 C 12.585938 -103.820312 15.328125 -104.796875 18.796875 -104.796875 C 22.210938 -104.796875 24.9375 -103.820312 26.96875 -101.875 C 29.007812 -99.9375 30.03125 -97.460938 30.03125 -94.453125 C 30.03125 -91.398438 29 -88.898438 26.9375 -86.953125 C 24.882812 -85.015625 22.171875 -84.046875 18.796875 -84.046875 C 15.421875 -84.046875 12.703125 -85.015625 10.640625 -86.953125 C 8.585938 -88.898438 7.5625 -91.398438 7.5625 -94.453125 Z M 7.5625 -94.453125 "/></g></g></g><g fill="#ff0000" fill-opacity="1"><g transform="translate(343.29575, 328.776654)"><g><path d="M 75.3125 -36.828125 C 75.3125 -24.804688 72.742188 -15.429688 67.609375 -8.703125 C 62.484375 -1.972656 55.320312 1.390625 46.125 1.390625 C 37.976562 1.390625 31.476562 -1.726562 26.625 -7.96875 L 25.734375 0 L 7.703125 0 L 7.703125 -106.53125 L 27.734375 -106.53125 L 27.734375 -68.3125 C 32.359375 -73.71875 38.441406 -76.421875 45.984375 -76.421875 C 55.140625 -76.421875 62.316406 -73.054688 67.515625 -66.328125 C 72.710938 -59.609375 75.3125 -50.144531 75.3125 -37.9375 Z M 55.265625 -38.28125 C 55.265625 -45.863281 54.0625 -51.398438 51.65625 -54.890625 C 49.257812 -58.378906 45.679688 -60.125 40.921875 -60.125 C 34.535156 -60.125 30.140625 -57.515625 27.734375 -52.296875 L 27.734375 -22.671875 C 30.191406 -17.398438 34.632812 -14.765625 41.0625 -14.765625 C 47.53125 -14.765625 51.78125 -17.957031 53.8125 -24.34375 C 54.78125 -27.394531 55.265625 -32.039062 55.265625 -38.28125 Z M 55.265625 -38.28125 "/></g></g></g><g fill="#ff0000" fill-opacity="1"><g transform="translate(423.256665, 328.776654)"><g><path d="M 42.234375 1.390625 C 31.234375 1.390625 22.273438 -1.984375 15.359375 -8.734375 C 8.453125 -15.484375 5 -24.476562 5 -35.71875 L 5 -37.65625 C 5 -45.195312 6.453125 -51.9375 9.359375 -57.875 C 12.273438 -63.8125 16.398438 -68.382812 21.734375 -71.59375 C 27.078125 -74.8125 33.171875 -76.421875 40.015625 -76.421875 C 50.273438 -76.421875 58.351562 -73.179688 64.25 -66.703125 C 70.144531 -60.234375 73.09375 -51.0625 73.09375 -39.1875 L 73.09375 -31 L 25.3125 -31 C 25.957031 -26.101562 27.910156 -22.171875 31.171875 -19.203125 C 34.429688 -16.242188 38.554688 -14.765625 43.546875 -14.765625 C 51.273438 -14.765625 57.3125 -17.5625 61.65625 -23.15625 L 71.5 -12.140625 C 68.5 -7.878906 64.429688 -4.554688 59.296875 -2.171875 C 54.160156 0.203125 48.472656 1.390625 42.234375 1.390625 Z M 39.953125 -60.203125 C 35.972656 -60.203125 32.742188 -58.859375 30.265625 -56.171875 C 27.796875 -53.492188 26.210938 -49.65625 25.515625 -44.65625 L 53.40625 -44.65625 L 53.40625 -46.25 C 53.3125 -50.695312 52.109375 -54.132812 49.796875 -56.5625 C 47.484375 -58.988281 44.203125 -60.203125 39.953125 -60.203125 Z M 39.953125 -60.203125 "/></g></g></g><g fill="#00ffff" fill-opacity="1"><g transform="translate(42.670254, 328.776654)"><g><path d="M 8.734375 -9.84375 C 8.734375 -13.039062 9.804688 -15.628906 11.953125 -17.609375 C 14.109375 -19.597656 16.804688 -20.59375 20.046875 -20.59375 C 23.328125 -20.59375 26.039062 -19.597656 28.1875 -17.609375 C 30.34375 -15.628906 31.421875 -13.039062 31.421875 -9.84375 C 31.421875 -6.695312 30.351562 -4.140625 28.21875 -2.171875 C 26.09375 -0.210938 23.367188 0.765625 20.046875 0.765625 C 16.765625 0.765625 14.054688 -0.210938 11.921875 -2.171875 C 9.796875 -4.140625 8.734375 -6.695312 8.734375 -9.84375 Z M 8.734375 -9.84375 "/></g></g></g><g fill="#00ffff" fill-opacity="1"><g transform="translate(83.933689, 328.776654)"><g><path d="M 61.375 -26.484375 C 61.375 -30.421875 59.984375 -33.441406 57.203125 -35.546875 C 54.429688 -37.648438 49.441406 -39.867188 42.234375 -42.203125 C 35.023438 -44.535156 29.316406 -46.832031 25.109375 -49.09375 C 13.640625 -55.289062 7.90625 -63.640625 7.90625 -74.140625 C 7.90625 -79.585938 9.441406 -84.453125 12.515625 -88.734375 C 15.585938 -93.015625 20 -96.351562 25.75 -98.75 C 31.507812 -101.15625 37.972656 -102.359375 45.140625 -102.359375 C 52.359375 -102.359375 58.785156 -101.050781 64.421875 -98.4375 C 70.066406 -95.832031 74.445312 -92.144531 77.5625 -87.375 C 80.6875 -82.613281 82.25 -77.207031 82.25 -71.15625 L 61.4375 -71.15625 C 61.4375 -75.78125 59.976562 -79.375 57.0625 -81.9375 C 54.15625 -84.5 50.066406 -85.78125 44.796875 -85.78125 C 39.710938 -85.78125 35.757812 -84.707031 32.9375 -82.5625 C 30.125 -80.414062 28.71875 -77.582031 28.71875 -74.0625 C 28.71875 -70.78125 30.367188 -68.03125 33.671875 -65.8125 C 36.972656 -63.59375 41.835938 -61.515625 48.265625 -59.578125 C 60.097656 -56.015625 68.71875 -51.597656 74.125 -46.328125 C 79.539062 -41.054688 82.25 -34.488281 82.25 -26.625 C 82.25 -17.894531 78.941406 -11.039062 72.328125 -6.0625 C 65.722656 -1.09375 56.828125 1.390625 45.640625 1.390625 C 37.867188 1.390625 30.789062 -0.03125 24.40625 -2.875 C 18.03125 -5.71875 13.164062 -9.613281 9.8125 -14.5625 C 6.457031 -19.507812 4.78125 -25.242188 4.78125 -31.765625 L 25.65625 -31.765625 C 25.65625 -20.617188 32.316406 -15.046875 45.640625 -15.046875 C 50.578125 -15.046875 54.429688 -16.050781 57.203125 -18.0625 C 59.984375 -20.070312 61.375 -22.878906 61.375 -26.484375 Z M 61.375 -26.484375 "/></g></g></g><g fill="#00ffff" fill-opacity="1"><g transform="translate(171.245724, 328.776654)"><g><path d="M 38.90625 -14.765625 C 42.601562 -14.765625 45.609375 -15.78125 47.921875 -17.8125 C 50.234375 -19.851562 51.4375 -22.5625 51.53125 -25.9375 L 70.328125 -25.9375 C 70.273438 -20.851562 68.882812 -16.195312 66.15625 -11.96875 C 63.425781 -7.738281 59.691406 -4.453125 54.953125 -2.109375 C 50.222656 0.222656 44.988281 1.390625 39.25 1.390625 C 28.519531 1.390625 20.054688 -2.019531 13.859375 -8.84375 C 7.671875 -15.664062 4.578125 -25.085938 4.578125 -37.109375 L 4.578125 -38.421875 C 4.578125 -49.984375 7.648438 -59.207031 13.796875 -66.09375 C 19.953125 -72.976562 28.390625 -76.421875 39.109375 -76.421875 C 48.492188 -76.421875 56.019531 -73.75 61.6875 -68.40625 C 67.351562 -63.070312 70.234375 -55.96875 70.328125 -47.09375 L 51.53125 -47.09375 C 51.4375 -50.976562 50.234375 -54.132812 47.921875 -56.5625 C 45.609375 -58.988281 42.554688 -60.203125 38.765625 -60.203125 C 34.097656 -60.203125 30.570312 -58.5 28.1875 -55.09375 C 25.8125 -51.695312 24.625 -46.1875 24.625 -38.5625 L 24.625 -36.484375 C 24.625 -28.753906 25.800781 -23.203125 28.15625 -19.828125 C 30.507812 -16.453125 34.09375 -14.765625 38.90625 -14.765625 Z M 38.90625 -14.765625 "/></g></g></g><g fill="#00ffff" fill-opacity="1"><g transform="translate(245.311845, 328.776654)"><g><path d="M 49.859375 -56.25 C 47.128906 -56.613281 44.726562 -56.796875 42.65625 -56.796875 C 35.070312 -56.796875 30.097656 -54.226562 27.734375 -49.09375 L 27.734375 0 L 7.703125 0 L 7.703125 -75.03125 L 26.625 -75.03125 L 27.1875 -66.09375 C 31.207031 -72.976562 36.78125 -76.421875 43.90625 -76.421875 C 46.125 -76.421875 48.203125 -76.125 50.140625 -75.53125 Z M 49.859375 -56.25 "/></g></g></g><g fill="#00ffff" fill-opacity="1"><g transform="translate(297.116526, 328.776654)"><g><path d="M 28.84375 0 L 8.734375 0 L 8.734375 -75.03125 L 28.84375 -75.03125 Z M 7.5625 -94.453125 C 7.5625 -97.460938 8.566406 -99.9375 10.578125 -101.875 C 12.585938 -103.820312 15.328125 -104.796875 18.796875 -104.796875 C 22.210938 -104.796875 24.9375 -103.820312 26.96875 -101.875 C 29.007812 -99.9375 30.03125 -97.460938 30.03125 -94.453125 C 30.03125 -91.398438 29 -88.898438 26.9375 -86.953125 C 24.882812 -85.015625 22.171875 -84.046875 18.796875 -84.046875 C 15.421875 -84.046875 12.703125 -85.015625 10.640625 -86.953125 C 8.585938 -88.898438 7.5625 -91.398438 7.5625 -94.453125 Z M 7.5625 -94.453125 "/></g></g></g><g fill="#00ffff" fill-opacity="1"><g transform="translate(334.773745, 328.776654)"><g><path d="M 75.3125 -36.828125 C 75.3125 -24.804688 72.742188 -15.429688 67.609375 -8.703125 C 62.484375 -1.972656 55.320312 1.390625 46.125 1.390625 C 37.976562 1.390625 31.476562 -1.726562 26.625 -7.96875 L 25.734375 0 L 7.703125 0 L 7.703125 -106.53125 L 27.734375 -106.53125 L 27.734375 -68.3125 C 32.359375 -73.71875 38.441406 -76.421875 45.984375 -76.421875 C 55.140625 -76.421875 62.316406 -73.054688 67.515625 -66.328125 C 72.710938 -59.609375 75.3125 -50.144531 75.3125 -37.9375 Z M 55.265625 -38.28125 C 55.265625 -45.863281 54.0625 -51.398438 51.65625 -54.890625 C 49.257812 -58.378906 45.679688 -60.125 40.921875 -60.125 C 34.535156 -60.125 30.140625 -57.515625 27.734375 -52.296875 L 27.734375 -22.671875 C 30.191406 -17.398438 34.632812 -14.765625 41.0625 -14.765625 C 47.53125 -14.765625 51.78125 -17.957031 53.8125 -24.34375 C 54.78125 -27.394531 55.265625 -32.039062 55.265625 -38.28125 Z M 55.265625 -38.28125 "/></g></g></g><g fill="#00ffff" fill-opacity="1"><g transform="translate(414.73466, 328.776654)"><g><path d="M 42.234375 1.390625 C 31.234375 1.390625 22.273438 -1.984375 15.359375 -8.734375 C 8.453125 -15.484375 5 -24.476562 5 -35.71875 L 5 -37.65625 C 5 -45.195312 6.453125 -51.9375 9.359375 -57.875 C 12.273438 -63.8125 16.398438 -68.382812 21.734375 -71.59375 C 27.078125 -74.8125 33.171875 -76.421875 40.015625 -76.421875 C 50.273438 -76.421875 58.351562 -73.179688 64.25 -66.703125 C 70.144531 -60.234375 73.09375 -51.0625 73.09375 -39.1875 L 73.09375 -31 L 25.3125 -31 C 25.957031 -26.101562 27.910156 -22.171875 31.171875 -19.203125 C 34.429688 -16.242188 38.554688 -14.765625 43.546875 -14.765625 C 51.273438 -14.765625 57.3125 -17.5625 61.65625 -23.15625 L 71.5 -12.140625 C 68.5 -7.878906 64.429688 -4.554688 59.296875 -2.171875 C 54.160156 0.203125 48.472656 1.390625 42.234375 1.390625 Z M 39.953125 -60.203125 C 35.972656 -60.203125 32.742188 -58.859375 30.265625 -56.171875 C 27.796875 -53.492188 26.210938 -49.65625 25.515625 -44.65625 L 53.40625 -44.65625 L 53.40625 -46.25 C 53.3125 -50.695312 52.109375 -54.132812 49.796875 -56.5625 C 47.484375 -58.988281 44.203125 -60.203125 39.953125 -60.203125 Z M 39.953125 -60.203125 "/></g></g></g><g fill="#000000" fill-opacity="1"><g transform="translate(46.931257, 328.776654)"><g><path d="M 8.734375 -9.84375 C 8.734375 -13.039062 9.804688 -15.628906 11.953125 -17.609375 C 14.109375 -19.597656 16.804688 -20.59375 20.046875 -20.59375 C 23.328125 -20.59375 26.039062 -19.597656 28.1875 -17.609375 C 30.34375 -15.628906 31.421875 -13.039062 31.421875 -9.84375 C 31.421875 -6.695312 30.351562 -4.140625 28.21875 -2.171875 C 26.09375 -0.210938 23.367188 0.765625 20.046875 0.765625 C 16.765625 0.765625 14.054688 -0.210938 11.921875 -2.171875 C 9.796875 -4.140625 8.734375 -6.695312 8.734375 -9.84375 Z M 8.734375 -9.84375 "/></g></g></g><g fill="#000000" fill-opacity="1"><g transform="translate(88.194692, 328.776654)"><g><path d="M 61.375 -26.484375 C 61.375 -30.421875 59.984375 -33.441406 57.203125 -35.546875 C 54.429688 -37.648438 49.441406 -39.867188 42.234375 -42.203125 C 35.023438 -44.535156 29.316406 -46.832031 25.109375 -49.09375 C 13.640625 -55.289062 7.90625 -63.640625 7.90625 -74.140625 C 7.90625 -79.585938 9.441406 -84.453125 12.515625 -88.734375 C 15.585938 -93.015625 20 -96.351562 25.75 -98.75 C 31.507812 -101.15625 37.972656 -102.359375 45.140625 -102.359375 C 52.359375 -102.359375 58.785156 -101.050781 64.421875 -98.4375 C 70.066406 -95.832031 74.445312 -92.144531 77.5625 -87.375 C 80.6875 -82.613281 82.25 -77.207031 82.25 -71.15625 L 61.4375 -71.15625 C 61.4375 -75.78125 59.976562 -79.375 57.0625 -81.9375 C 54.15625 -84.5 50.066406 -85.78125 44.796875 -85.78125 C 39.710938 -85.78125 35.757812 -84.707031 32.9375 -82.5625 C 30.125 -80.414062 28.71875 -77.582031 28.71875 -74.0625 C 28.71875 -70.78125 30.367188 -68.03125 33.671875 -65.8125 C 36.972656 -63.59375 41.835938 -61.515625 48.265625 -59.578125 C 60.097656 -56.015625 68.71875 -51.597656 74.125 -46.328125 C 79.539062 -41.054688 82.25 -34.488281 82.25 -26.625 C 82.25 -17.894531 78.941406 -11.039062 72.328125 -6.0625 C 65.722656 -1.09375 56.828125 1.390625 45.640625 1.390625 C 37.867188 1.390625 30.789062 -0.03125 24.40625 -2.875 C 18.03125 -5.71875 13.164062 -9.613281 9.8125 -14.5625 C 6.457031 -19.507812 4.78125 -25.242188 4.78125 -31.765625 L 25.65625 -31.765625 C 25.65625 -20.617188 32.316406 -15.046875 45.640625 -15.046875 C 50.578125 -15.046875 54.429688 -16.050781 57.203125 -18.0625 C 59.984375 -20.070312 61.375 -22.878906 61.375 -26.484375 Z M 61.375 -26.484375 "/></g></g></g><g fill="#000000" fill-opacity="1"><g transform="translate(175.506726, 328.776654)"><g><path d="M 38.90625 -14.765625 C 42.601562 -14.765625 45.609375 -15.78125 47.921875 -17.8125 C 50.234375 -19.851562 51.4375 -22.5625 51.53125 -25.9375 L 70.328125 -25.9375 C 70.273438 -20.851562 68.882812 -16.195312 66.15625 -11.96875 C 63.425781 -7.738281 59.691406 -4.453125 54.953125 -2.109375 C 50.222656 0.222656 44.988281 1.390625 39.25 1.390625 C 28.519531 1.390625 20.054688 -2.019531 13.859375 -8.84375 C 7.671875 -15.664062 4.578125 -25.085938 4.578125 -37.109375 L 4.578125 -38.421875 C 4.578125 -49.984375 7.648438 -59.207031 13.796875 -66.09375 C 19.953125 -72.976562 28.390625 -76.421875 39.109375 -76.421875 C 48.492188 -76.421875 56.019531 -73.75 61.6875 -68.40625 C 67.351562 -63.070312 70.234375 -55.96875 70.328125 -47.09375 L 51.53125 -47.09375 C 51.4375 -50.976562 50.234375 -54.132812 47.921875 -56.5625 C 45.609375 -58.988281 42.554688 -60.203125 38.765625 -60.203125 C 34.097656 -60.203125 30.570312 -58.5 28.1875 -55.09375 C 25.8125 -51.695312 24.625 -46.1875 24.625 -38.5625 L 24.625 -36.484375 C 24.625 -28.753906 25.800781 -23.203125 28.15625 -19.828125 C 30.507812 -16.453125 34.09375 -14.765625 38.90625 -14.765625 Z M 38.90625 -14.765625 "/></g></g></g><g fill="#000000" fill-opacity="1"><g transform="translate(249.572847, 328.776654)"><g><path d="M 49.859375 -56.25 C 47.128906 -56.613281 44.726562 -56.796875 42.65625 -56.796875 C 35.070312 -56.796875 30.097656 -54.226562 27.734375 -49.09375 L 27.734375 0 L 7.703125 0 L 7.703125 -75.03125 L 26.625 -75.03125 L 27.1875 -66.09375 C 31.207031 -72.976562 36.78125 -76.421875 43.90625 -76.421875 C 46.125 -76.421875 48.203125 -76.125 50.140625 -75.53125 Z M 49.859375 -56.25 "/></g></g></g><g fill="#000000" fill-opacity="1"><g transform="translate(301.377528, 328.776654)"><g><path d="M 28.84375 0 L 8.734375 0 L 8.734375 -75.03125 L 28.84375 -75.03125 Z M 7.5625 -94.453125 C 7.5625 -97.460938 8.566406 -99.9375 10.578125 -101.875 C 12.585938 -103.820312 15.328125 -104.796875 18.796875 -104.796875 C 22.210938 -104.796875 24.9375 -103.820312 26.96875 -101.875 C 29.007812 -99.9375 30.03125 -97.460938 30.03125 -94.453125 C 30.03125 -91.398438 29 -88.898438 26.9375 -86.953125 C 24.882812 -85.015625 22.171875 -84.046875 18.796875 -84.046875 C 15.421875 -84.046875 12.703125 -85.015625 10.640625 -86.953125 C 8.585938 -88.898438 7.5625 -91.398438 7.5625 -94.453125 Z M 7.5625 -94.453125 "/></g></g></g><g fill="#000000" fill-opacity="1"><g transform="translate(339.034748, 328.776654)"><g><path d="M 75.3125 -36.828125 C 75.3125 -24.804688 72.742188 -15.429688 67.609375 -8.703125 C 62.484375 -1.972656 55.320312 1.390625 46.125 1.390625 C 37.976562 1.390625 31.476562 -1.726562 26.625 -7.96875 L 25.734375 0 L 7.703125 0 L 7.703125 -106.53125 L 27.734375 -106.53125 L 27.734375 -68.3125 C 32.359375 -73.71875 38.441406 -76.421875 45.984375 -76.421875 C 55.140625 -76.421875 62.316406 -73.054688 67.515625 -66.328125 C 72.710938 -59.609375 75.3125 -50.144531 75.3125 -37.9375 Z M 55.265625 -38.28125 C 55.265625 -45.863281 54.0625 -51.398438 51.65625 -54.890625 C 49.257812 -58.378906 45.679688 -60.125 40.921875 -60.125 C 34.535156 -60.125 30.140625 -57.515625 27.734375 -52.296875 L 27.734375 -22.671875 C 30.191406 -17.398438 34.632812 -14.765625 41.0625 -14.765625 C 47.53125 -14.765625 51.78125 -17.957031 53.8125 -24.34375 C 54.78125 -27.394531 55.265625 -32.039062 55.265625 -38.28125 Z M 55.265625 -38.28125 "/></g></g></g><g fill="#000000" fill-opacity="1"><g transform="translate(418.995663, 328.776654)"><g><path d="M 42.234375 1.390625 C 31.234375 1.390625 22.273438 -1.984375 15.359375 -8.734375 C 8.453125 -15.484375 5 -24.476562 5 -35.71875 L 5 -37.65625 C 5 -45.195312 6.453125 -51.9375 9.359375 -57.875 C 12.273438 -63.8125 16.398438 -68.382812 21.734375 -71.59375 C 27.078125 -74.8125 33.171875 -76.421875 40.015625 -76.421875 C 50.273438 -76.421875 58.351562 -73.179688 64.25 -66.703125 C 70.144531 -60.234375 73.09375 -51.0625 73.09375 -39.1875 L 73.09375 -31 L 25.3125 -31 C 25.957031 -26.101562 27.910156 -22.171875 31.171875 -19.203125 C 34.429688 -16.242188 38.554688 -14.765625 43.546875 -14.765625 C 51.273438 -14.765625 57.3125 -17.5625 61.65625 -23.15625 L 71.5 -12.140625 C 68.5 -7.878906 64.429688 -4.554688 59.296875 -2.171875 C 54.160156 0.203125 48.472656 1.390625 42.234375 1.390625 Z M 39.953125 -60.203125 C 35.972656 -60.203125 32.742188 -58.859375 30.265625 -56.171875 C 27.796875 -53.492188 26.210938 -49.65625 25.515625 -44.65625 L 53.40625 -44.65625 L 53.40625 -46.25 C 53.3125 -50.695312 52.109375 -54.132812 49.796875 -56.5625 C 47.484375 -58.988281 44.203125 -60.203125 39.953125 -60.203125 Z M 39.953125 -60.203125 "/></g></g></g></svg>